<svg id="svg4228" xmlns="http://www.w3.org/2000/svg" viewBox="0 0 271 69.4" width="68.0690738" height="16"><style>.st0{fill:#484a78}.st2{fill:#ff8205}</style><g id="layer1"><g id="g5207"><g id="g5420" transform="matrix(1.57722 0 0 1.57722 -156.92 -1230.267)"><path id="path14875-9" class="st0" d="M153.9 809.9h-4.2v-14.8h4.2v14.8zm.6-19.3c0 .7-.3 1.3-.8 1.9-.5.5-1.1.8-1.8.8s-1.4-.3-1.9-.8-.8-1.2-.8-1.9.3-1.4.8-1.9 1.1-.8 1.9-.8c.7 0 1.3.3 1.8.8s.8 1.2.8 1.9z"/><path id="path14877-35" class="st0" d="M167.8 793.9h-3.4V810h-4v-16.1H157v-4h3.4v-7.5h4v7.5h3.4v4z"/><path id="path15111" class="st0" d="M108.5 809.9h-4.2v-27.6h4.2v27.6z"/><path id="path15113" class="st0" d="M120.3 792.1c2.4 0 4.5.9 6.2 2.6 1.7 1.7 2.6 3.8 2.6 6.2v9H125v-9c0-1.3-.5-2.4-1.4-3.3-.9-.9-2-1.3-3.3-1.3s-2.4.4-3.3 1.3c-.9.9-1.4 2-1.4 3.3v9h-4.2v-9c0-2.4.9-4.5 2.6-6.2 1.8-1.7 3.9-2.6 6.3-2.6z"/><path id="path15115" class="st0" d="M130 792.1h4.4l4 11.1 4-11.1h4.4l-6.5 17.8h-4l-6.3-17.8z"/><path id="path15121" class="st0" d="M176.6 796.4c-.6 0-1.2.2-1.7.4-.6.3-1.1.6-1.5 1.1s-.7 1-.9 1.5-.3 1-.3 1.4l7.6-3.3c-.4-.3-.8-.5-1.2-.7-.7-.3-1.3-.4-2-.4zm.2 13.5c-1.1 0-2.2-.2-3.3-.6-1.1-.4-2-1-2.9-1.8s-1.6-1.8-2-2.9c-.5-1-.7-2.1-.8-3.3v-.3c0-1.1.2-2.2.6-3.3.4-1.1 1-2 1.8-2.9s1.8-1.6 2.9-2c1.1-.5 2.2-.7 3.3-.8h.2c1.1 0 2.2.2 3.3.6 1.1.4 2 1 2.9 1.8 1 1 2 2.6 2.9 4.8l-11.9 5.2c.4.3.8.6 1.2.7.6.2 1.1.3 1.7.3h.2c.6 0 1.1-.2 1.7-.4.6-.3 1.1-.6 1.5-1.1s.7-1 .9-1.5l3.9 1.5c-.4 1.1-1 2-1.8 2.9s-1.8 1.6-2.9 2c-1 .5-2.1.7-3.3.8l-.1.3z"/><path id="path5081-5-0-7-8-5" d="M227.1 796.5c-1.3 0-2.4.5-3.3 1.4s-1.3 2-1.3 3.3.4 2.4 1.3 3.3c.9.9 2 1.4 3.3 1.4s2.4-.5 3.3-1.4c.9-.9 1.4-2 1.4-3.3s-.5-2.4-1.4-3.3c-1-1-2.1-1.4-3.3-1.4zm8.8 15.2c0 3.8-1.1 6.7-3.4 8.7-1.7 1.5-3.7 2.2-5.8 2.2v-4.2c1 0 2-.4 2.8-1 1.5-1.1 2.2-3.1 2.2-5.7v-3.1c-1.4.9-2.9 1.3-4.7 1.3-2.4 0-4.5-.9-6.2-2.6-1.7-1.7-2.6-3.8-2.6-6.2s.9-4.5 2.6-6.2c1.7-1.7 3.8-2.6 6.2-2.6s4.5.9 6.3 2.6c1.7 1.7 2.6 3.8 2.6 6.2v10.6z" fill="#f81"/><path id="path5077-7-9-4-5-8" class="st2" d="M196.6 798.7c6.4 0 9.1-6.4 5.4-9.8-1.5-1.5-4-2.2-5.4-2.2h-3.3v12h3.3zm6.7 11.2l-5.4-6.9h-4.5v6.9H189v-27.5h7.6c3.3 0 6.3 1 8.7 3.3 4.9 5.4 3.3 12.7-2.9 15.9l6.5 8.3h-5.6z"/><path id="path5079-0-4-6-2-3" class="st2" d="M215.6 809.9h-4.1v-18l4.1 4.1v13.9z"/><path id="path5083-3-8-7-5-98" class="st2" d="M247.5 792.3c2.4 0 4.4.8 6.1 2.5 1.7 1.7 2.6 3.8 2.6 6.2v9h-4.1v-9c0-1.3-.4-2.3-1.3-3.2-.9-.9-2-1.4-3.2-1.4-1.3 0-2.3.5-3.2 1.4s-1.3 1.9-1.3 3.2v9h-4.3v-27.5h4.1v11.3c1.4-1.1 2.9-1.5 4.6-1.5z"/><path id="path5085-4-7-6-1-7" class="st2" d="M267.8 793.8h-3.4v16.1h-3.9v-16.1h-3.4v-4h3.4v-7.5h3.9v7.5h3.4v4z"/><path id="path14210-0-5" class="st0" d="M211.4 783v5.9l4.2 4.2 10.7-10.6h-5.9l-4.8 4.8-4.2-4.3z"/></g></g></g></svg>