<svg xmlns="http://www.w3.org/2000/svg" width="78.5975664" height="16" viewBox="0 0 341.138 69.445"><path fill="#5AA02C" d="M196.5 46.775c-2.41 0-4.498-.763-6.265-2.29-1.927-1.666-3.156-3.763-3.156-6.293h6.565c0 .823.816 2.237 1.68 2.578.442.18.874.27 1.295.27 1.475.009 2.832-.58 2.885-2.337 0-.583-.284-1.033-.565-1.293-.462-.462-1.396-.783-2.8-.964-2.932-.321-5.22-1.365-6.867-3.132-1.466-1.566-2.199-3.383-2.199-5.451 0-2.45.803-4.577 2.41-6.384 1.747-2.008 4.035-3.011 6.866-3.011 2.811 0 5.13.913 6.957 2.74 1.827 1.847 2.624 4.139 2.624 6.91h-6.565c0-2.047-.957-3.342-3.044-3.342-1.807 0-2.854 1.048-2.825 2.629.021 1.144 1.142 2.306 3.396 2.567 3.453.4 5.942 1.616 7.468 3.644 1.044 1.385 1.566 3.072 1.566 5.06 0 2.369-.934 4.316-2.8 5.842-1.849 1.504-4.057 2.257-6.627 2.257z"/><path fill="#F81" d="M273.258 25.19c-2.032 0-3.782.724-5.25 2.172-1.429 1.468-2.143 3.228-2.143 5.28 0 2.032.714 3.782 2.143 5.25 1.468 1.448 3.218 2.172 5.25 2.172 2.051 0 3.811-.725 5.28-2.172 1.447-1.468 2.171-3.218 2.171-5.25 0-2.051-.724-3.812-2.172-5.28-1.468-1.448-3.228-2.172-5.279-2.172zm14.15 24.499c0 6.155-1.81 10.8-5.43 13.939-2.736 2.394-5.872 3.615-9.312 3.615-.002-2.205-.002-4.427-.002-6.688 1.67-.04 3.2-.587 4.546-1.634 2.354-1.83 3.53-4.908 3.53-9.232V44.74c-2.213 1.388-4.707 2.082-7.482 2.082-3.902 0-7.23-1.388-9.986-4.164-2.796-2.775-4.193-6.114-4.193-10.017 0-3.922 1.397-7.261 4.193-10.017 2.756-2.796 6.084-4.194 9.986-4.194 3.922 0 7.271 1.398 10.047 4.194 2.735 2.755 4.104 6.094 4.104 10.017v17.047z"/><path fill="#FF8205" d="M224.303 28.84c10.28-.004 14.621-10.224 8.63-15.755-2.395-2.394-6.503-3.591-8.63-3.591h-5.25V28.84h5.25zm10.801 17.983l-8.749-11.012h-7.302v11.012h-6.969V2.556h12.22c5.29 0 10.161 1.612 13.901 5.353 7.955 8.733 5.252 20.4-4.7 25.579l10.47 13.335h-8.87zM254.866 46.823H248.2V17.977l6.667 6.624v22.222zM306.173 18.462c3.842 0 7.13 1.357 9.865 4.073 2.734 2.736 4.104 6.034 4.104 9.896v14.392h-6.668V32.43c0-2.032-.715-3.751-2.143-5.16-1.428-1.447-3.148-2.171-5.158-2.171-2.012 0-3.742.724-5.189 2.172-1.43 1.408-2.143 3.127-2.143 5.159v14.392h-6.85V2.555h6.668v18.079c2.273-1.448 4.777-2.172 7.514-2.172zM338.802 20.94h-5.46v25.882h-6.337V20.94h-5.46v-6.366h5.46V2.555h6.336v12.02h5.461v6.366z"/><path fill="#5AA02C" d="M248.155 3.532v9.446l6.703 6.687 17.12-17.102h-9.48l-7.64 7.657-6.703-6.688z"/><path fill="#5AA02C" stroke="#5AA02C" stroke-width="1.42" d="M27.004 3.166c-2.912 0-5.718.563-8.402 1.686a21.708 21.708 0 0 0-6.849 4.609v.002a21.321 21.321 0 0 0-4.612 6.85 21.397 21.397 0 0 0-1.686 8.378c0 2.929.563 5.735 1.686 8.403a21.644 21.644 0 0 0 4.61 6.874l.001.002h.001a21.72 21.72 0 0 0 6.848 4.609h.001a21.577 21.577 0 0 0 8.402 1.687c2.912 0 5.71-.563 8.378-1.686l.003-.001h.001a22.314 22.314 0 0 0 6.394-4.158l.435-.401-4.649-4.65-.4.367a15.58 15.58 0 0 1-4.333 2.796 15.045 15.045 0 0 1-5.829 1.159c-2.03 0-3.97-.386-5.835-1.162a14.628 14.628 0 0 1-4.764-3.235l-.003-.002v-.003a14.53 14.53 0 0 1-3.21-4.742 15.084 15.084 0 0 1-1.162-5.858c0-2.013.386-3.954 1.162-5.837v-.001a14.917 14.917 0 0 1 3.21-4.74 15.203 15.203 0 0 1 4.775-3.24 15.032 15.032 0 0 1 5.827-1.16c2.031 0 3.971.387 5.835 1.163h.001a14.83 14.83 0 0 1 4.318 2.814l.402.375.387-.39 4.262-4.26-.425-.4a21.206 21.206 0 0 0-6.403-4.165 21.44 21.44 0 0 0-8.377-1.683z"/><path fill="#5AA02C" d="M59.775 25.22c-2.03 0-3.78.725-5.25 2.173-1.428 1.468-2.142 3.218-2.142 5.249s.714 3.78 2.142 5.249c1.468 1.448 3.218 2.172 5.25 2.172 2.051 0 3.811-.724 5.28-2.172 1.447-1.468 2.171-3.218 2.171-5.25s-.724-3.78-2.172-5.248c-1.468-1.448-3.227-2.172-5.279-2.172zm7.542 19.489c-2.232 1.408-4.747 2.112-7.542 2.112-3.902 0-7.23-1.388-9.986-4.163-2.795-2.775-4.193-6.114-4.193-10.016s1.398-7.23 4.193-9.985c2.755-2.795 6.084-4.193 9.986-4.193 3.922 0 7.27 1.398 10.046 4.193 2.775 2.755 4.163 6.083 4.163 9.985V46.82h-6.667v-2.112zM107.076 18.464c3.286 0 6.083 1.164 8.39 3.49 2.326 2.327 3.49 5.133 3.49 8.42V46.82h-6.705V30.374c0-1.43-.51-2.654-1.53-3.674-1-1-2.215-1.5-3.644-1.5s-2.644.5-3.644 1.5c-1.02 1.02-1.53 2.245-1.53 3.674V46.82h-6.798V30.374c0-1.43-.5-2.654-1.5-3.674-1.02-1-2.245-1.5-3.674-1.5-1.409 0-2.623.5-3.644 1.5-1 1.02-1.5 2.245-1.5 3.674V46.82h-6.736V30.374c0-3.287 1.164-6.093 3.491-8.42s5.123-3.49 8.39-3.49c3.367 0 6.224 1.214 8.572 3.644 2.346-2.43 5.203-3.644 8.572-3.644zM137.271 25.186c-2.05 0-3.809.724-5.276 2.17-1.447 1.467-2.17 3.226-2.17 5.276 0 2.03.724 3.778 2.17 5.246 1.467 1.447 3.226 2.17 5.276 2.17 2.03 0 3.778-.724 5.245-2.17 1.427-1.467 2.141-3.216 2.141-5.246 0-2.05-.713-3.81-2.14-5.276-1.468-1.446-3.216-2.17-5.246-2.17zm-14.139 7.446c0-3.92 1.367-7.255 4.1-10.01 2.773-2.792 6.12-4.19 10.04-4.19 3.898 0 7.224 1.398 9.978 4.19 2.793 2.754 4.19 6.09 4.19 10.01 0 3.899-1.397 7.235-4.19 10.009-2.753 2.773-6.08 4.16-9.979 4.16-2.773 0-5.266-.693-7.477-2.08v21.772h-6.663V32.632h.001zM169.051 46.82c-3.86 0-7.15-1.367-9.865-4.102-2.735-2.715-4.103-6.003-4.103-9.865v-14.39h6.728v14.39c0 2.012.704 3.73 2.112 5.16 1.448 1.428 3.167 2.142 5.16 2.142s3.71-.714 5.158-2.142c1.408-1.428 2.112-3.148 2.112-5.16v-14.39h6.727v14.39c0 3.862-1.368 7.15-4.103 9.866-2.715 2.735-6.003 4.103-9.865 4.103h-.06v-.001z"/></svg>